<mxfile host="Electron" modified="2023-10-18T01:21:47.763Z" agent="Mozilla/5.0 (Windows NT 10.0; Win64; x64) AppleWebKit/537.36 (KHTML, like Gecko) draw.io/22.0.0 Chrome/114.0.5735.289 Electron/25.8.3 Safari/537.36" etag="NxVPXReODD1-IEUlwXJe" version="22.0.0" type="device">
  <diagram id="tcJoGeuxI8kGtLN16Q2e" name="Página-1">
    <mxGraphModel dx="14236" dy="4746" grid="0" gridSize="10" guides="1" tooltips="1" connect="1" arrows="1" fold="1" page="1" pageScale="1" pageWidth="1169" pageHeight="827" math="0" shadow="0">
      <root>
        <mxCell id="0" />
        <mxCell id="1" parent="0" />
        <mxCell id="cYJW5esRKiPfuecrpoDO-1" value="Pedido" style="rounded=0;whiteSpace=wrap;html=1;fontSize=53;strokeWidth=3;fillColor=#F2C12E;fontStyle=1" vertex="1" parent="1">
          <mxGeometry x="-2742" y="1106" width="400" height="2644" as="geometry" />
        </mxCell>
        <mxCell id="cYJW5esRKiPfuecrpoDO-2" value="Cliente" style="rounded=0;whiteSpace=wrap;html=1;fontSize=53;strokeWidth=3;fillColor=#F2C12E;fontStyle=1" vertex="1" parent="1">
          <mxGeometry x="-4216" y="1089" width="400" height="419" as="geometry" />
        </mxCell>
        <mxCell id="cYJW5esRKiPfuecrpoDO-3" value="Cliente" style="rounded=0;whiteSpace=wrap;html=1;fontSize=25;strokeWidth=3;fillColor=#f2e7ac;" vertex="1" parent="1">
          <mxGeometry x="-4553" y="1087" width="108" height="196.36" as="geometry" />
        </mxCell>
        <mxCell id="cYJW5esRKiPfuecrpoDO-4" value="cadatrar dados" style="rounded=0;whiteSpace=wrap;html=1;fontSize=25;strokeWidth=3;fillColor=#01bcd2;strokeColor=default;" vertex="1" parent="1">
          <mxGeometry x="-4431" y="1089" width="200" height="200" as="geometry" />
        </mxCell>
        <mxCell id="cYJW5esRKiPfuecrpoDO-5" value="fez cadastro" style="rounded=0;whiteSpace=wrap;html=1;fontSize=25;strokeWidth=3;fillColor=#f2a413;strokeColor=#000000;" vertex="1" parent="1">
          <mxGeometry x="-3801" y="1089" width="200" height="200" as="geometry" />
        </mxCell>
        <mxCell id="cYJW5esRKiPfuecrpoDO-6" value="política de validação dos campos" style="rounded=0;whiteSpace=wrap;html=1;fontSize=25;strokeWidth=3;fillColor=#cf89d9;" vertex="1" parent="1">
          <mxGeometry x="-3588" y="1089" width="200" height="200" as="geometry" />
        </mxCell>
        <mxCell id="cYJW5esRKiPfuecrpoDO-7" value="confirmar&lt;br&gt;cadastro" style="rounded=0;whiteSpace=wrap;html=1;fontSize=25;strokeWidth=3;fillColor=#01bcd2;strokeColor=default;" vertex="1" parent="1">
          <mxGeometry x="-4431" y="1309" width="200" height="200" as="geometry" />
        </mxCell>
        <mxCell id="cYJW5esRKiPfuecrpoDO-8" value="confirmou&lt;br&gt;cadastro" style="rounded=0;whiteSpace=wrap;html=1;fontSize=25;strokeWidth=3;fillColor=#f2a413;strokeColor=default;" vertex="1" parent="1">
          <mxGeometry x="-3799" y="1316" width="200" height="200" as="geometry" />
        </mxCell>
        <mxCell id="cYJW5esRKiPfuecrpoDO-9" value="cliente" style="rounded=0;whiteSpace=wrap;html=1;fontSize=25;strokeWidth=3;fillColor=#f2e7ac;" vertex="1" parent="1">
          <mxGeometry x="-3285" y="1106" width="110" height="200" as="geometry" />
        </mxCell>
        <mxCell id="cYJW5esRKiPfuecrpoDO-10" value="escolher pedido" style="rounded=0;whiteSpace=wrap;html=1;fontSize=25;strokeWidth=3;fillColor=#01bcd2;strokeColor=default;" vertex="1" parent="1">
          <mxGeometry x="-2955" y="1106" width="200" height="200" as="geometry" />
        </mxCell>
        <mxCell id="cYJW5esRKiPfuecrpoDO-11" value="escolheu pedido" style="rounded=0;whiteSpace=wrap;html=1;fontSize=25;strokeWidth=3;fillColor=#f2a413;strokeColor=#000000;" vertex="1" parent="1">
          <mxGeometry x="-2327" y="1106" width="200" height="200" as="geometry" />
        </mxCell>
        <mxCell id="cYJW5esRKiPfuecrpoDO-12" value="cria o carrinho para que o cliente possa adicionar ou remover produtos" style="rounded=0;whiteSpace=wrap;html=1;fontSize=25;strokeWidth=3;fillColor=#cf89d9;" vertex="1" parent="1">
          <mxGeometry x="-2112" y="1106" width="200" height="200" as="geometry" />
        </mxCell>
        <mxCell id="cYJW5esRKiPfuecrpoDO-13" value="cria o carrinho" style="rounded=0;whiteSpace=wrap;html=1;fontSize=25;strokeWidth=3;fillColor=#01bcd2;strokeColor=default;" vertex="1" parent="1">
          <mxGeometry x="-2955" y="1315" width="200" height="200" as="geometry" />
        </mxCell>
        <mxCell id="cYJW5esRKiPfuecrpoDO-14" value="criou carrinho do pedido" style="rounded=0;whiteSpace=wrap;html=1;fontSize=25;strokeWidth=3;fillColor=#f2a413;strokeColor=#000000;" vertex="1" parent="1">
          <mxGeometry x="-2330" y="1320" width="200" height="200" as="geometry" />
        </mxCell>
        <mxCell id="cYJW5esRKiPfuecrpoDO-15" value="exibiu tela&lt;br&gt;&amp;nbsp;de revisão do pedido" style="rounded=0;whiteSpace=wrap;html=1;fontSize=25;strokeWidth=3;fillColor=#f2a413;strokeColor=default;" vertex="1" parent="1">
          <mxGeometry x="-2330" y="1534" width="200" height="200" as="geometry" />
        </mxCell>
        <mxCell id="cYJW5esRKiPfuecrpoDO-16" value="redireciona para&amp;nbsp;&lt;br style=&quot;border-color: var(--border-color);&quot;&gt;tela de revisão" style="rounded=0;whiteSpace=wrap;html=1;fontSize=25;strokeWidth=3;fillColor=#cf89d9;" vertex="1" parent="1">
          <mxGeometry x="-2112" y="1320" width="200" height="200" as="geometry" />
        </mxCell>
        <mxCell id="cYJW5esRKiPfuecrpoDO-17" value="redireciona para&amp;nbsp;&lt;br style=&quot;border-color: var(--border-color);&quot;&gt;tela de pagamento do pedido" style="rounded=0;whiteSpace=wrap;html=1;fontSize=25;strokeWidth=3;fillColor=#cf89d9;" vertex="1" parent="1">
          <mxGeometry x="-2110" y="1534" width="200" height="200" as="geometry" />
        </mxCell>
        <mxCell id="cYJW5esRKiPfuecrpoDO-18" value="adiciona, &lt;br&gt;remove, dupla itens ou volta para a tela anterior" style="rounded=0;whiteSpace=wrap;html=1;fontSize=25;strokeWidth=3;fillColor=#01bcd2;strokeColor=default;" vertex="1" parent="1">
          <mxGeometry x="-2955" y="1524" width="200" height="200" as="geometry" />
        </mxCell>
        <mxCell id="cYJW5esRKiPfuecrpoDO-19" value="exibir comprovante e impressão" style="rounded=0;whiteSpace=wrap;html=1;fontSize=25;strokeWidth=3;fillColor=#01bcd2;strokeColor=default;" vertex="1" parent="1">
          <mxGeometry x="-2955" y="1833" width="200" height="200" as="geometry" />
        </mxCell>
        <mxCell id="cYJW5esRKiPfuecrpoDO-20" value="&lt;div style=&quot;font-size: 25px;&quot;&gt;Exibiu tela de comprovante do pedido e&amp;nbsp;&lt;/div&gt;imprimiu comprovante e senha" style="rounded=0;whiteSpace=wrap;html=1;fontSize=25;strokeWidth=3;fillColor=#f2a413;fontStyle=0;strokeColor=#000000;" vertex="1" parent="1">
          <mxGeometry x="-2317" y="1829" width="200" height="200" as="geometry" />
        </mxCell>
        <mxCell id="cYJW5esRKiPfuecrpoDO-21" value="Sistema emite pedido para cozinha" style="rounded=0;whiteSpace=wrap;html=1;fontSize=24;strokeWidth=3;fillColor=#cf89d9;" vertex="1" parent="1">
          <mxGeometry x="-2100" y="1829" width="200" height="200" as="geometry" />
        </mxCell>
        <mxCell id="cYJW5esRKiPfuecrpoDO-22" value="emitir &lt;br&gt;pedido para cozinha" style="rounded=0;whiteSpace=wrap;html=1;fontSize=25;strokeWidth=3;fillColor=#01bcd2;strokeColor=default;" vertex="1" parent="1">
          <mxGeometry x="-2955" y="2053" width="200" height="200" as="geometry" />
        </mxCell>
        <mxCell id="cYJW5esRKiPfuecrpoDO-23" value="gerou pedido para a cozinha" style="rounded=0;whiteSpace=wrap;html=1;fontSize=25;strokeWidth=3;fillColor=#f2a413;strokeColor=#000000;" vertex="1" parent="1">
          <mxGeometry x="-2317" y="2035" width="200" height="200" as="geometry" />
        </mxCell>
        <mxCell id="cYJW5esRKiPfuecrpoDO-24" value="Atualização do status do pedido" style="rounded=0;whiteSpace=wrap;html=1;fontSize=24;strokeWidth=3;fillColor=#cf89d9;" vertex="1" parent="1">
          <mxGeometry x="-2102" y="2035" width="200" height="200" as="geometry" />
        </mxCell>
        <mxCell id="cYJW5esRKiPfuecrpoDO-25" value="Atualizar status do pedido" style="rounded=0;whiteSpace=wrap;html=1;fontSize=25;strokeWidth=3;fillColor=#01bcd2;strokeColor=default;" vertex="1" parent="1">
          <mxGeometry x="-2955" y="2261" width="200" height="200" as="geometry" />
        </mxCell>
        <mxCell id="cYJW5esRKiPfuecrpoDO-26" value="atualizou&amp;nbsp;status do pedido no sistema&lt;br&gt;&quot;RECEBIDO&quot;" style="rounded=0;whiteSpace=wrap;html=1;fontSize=25;strokeWidth=3;fillColor=#f2a413;strokeColor=#FF0000;fontStyle=0" vertex="1" parent="1">
          <mxGeometry x="-2318" y="2241.5" width="200" height="200" as="geometry" />
        </mxCell>
        <mxCell id="cYJW5esRKiPfuecrpoDO-27" value="Cozinheiro" style="rounded=0;whiteSpace=wrap;html=1;fontSize=21;strokeWidth=3;fillColor=#f2e7ac;" vertex="1" parent="1">
          <mxGeometry x="-3285" y="2482" width="110" height="200" as="geometry" />
        </mxCell>
        <mxCell id="cYJW5esRKiPfuecrpoDO-28" value="visualizar pedido&lt;br&gt;impresso / tablet" style="rounded=0;whiteSpace=wrap;html=1;fontSize=25;strokeWidth=3;fillColor=#01bcd2;strokeColor=default;" vertex="1" parent="1">
          <mxGeometry x="-2955" y="2475" width="200" height="200" as="geometry" />
        </mxCell>
        <mxCell id="cYJW5esRKiPfuecrpoDO-29" value="visualizou pedido" style="rounded=0;whiteSpace=wrap;html=1;fontSize=25;strokeWidth=3;fillColor=#f2a413;strokeColor=#000000;" vertex="1" parent="1">
          <mxGeometry x="-2318" y="2451" width="200" height="200" as="geometry" />
        </mxCell>
        <mxCell id="cYJW5esRKiPfuecrpoDO-30" value="atualizou&amp;nbsp;status do pedido no sistema&lt;br&gt;&quot;EM PREPARO&quot;" style="rounded=0;whiteSpace=wrap;html=1;fontSize=25;strokeWidth=3;fillColor=#f2a413;strokeColor=#FF0000;fontStyle=0" vertex="1" parent="1">
          <mxGeometry x="-2320" y="2666" width="200" height="200" as="geometry" />
        </mxCell>
        <mxCell id="cYJW5esRKiPfuecrpoDO-31" value="Atualizar status do pedido no sistema" style="rounded=0;whiteSpace=wrap;html=1;fontSize=25;strokeWidth=3;fillColor=#01bcd2;strokeColor=default;" vertex="1" parent="1">
          <mxGeometry x="-2958" y="2690" width="200" height="200" as="geometry" />
        </mxCell>
        <mxCell id="cYJW5esRKiPfuecrpoDO-32" value="Atualização do status do pedido reflete no painel de senhas" style="rounded=0;whiteSpace=wrap;html=1;fontSize=24;strokeWidth=3;fillColor=#cf89d9;" vertex="1" parent="1">
          <mxGeometry x="-2108" y="2666" width="200" height="200" as="geometry" />
        </mxCell>
        <mxCell id="cYJW5esRKiPfuecrpoDO-33" value="Atualização do status do pedido reflete no painel de senhas" style="rounded=0;whiteSpace=wrap;html=1;fontSize=24;strokeWidth=3;fillColor=#cf89d9;" vertex="1" parent="1">
          <mxGeometry x="-2104" y="2243" width="200" height="200" as="geometry" />
        </mxCell>
        <mxCell id="cYJW5esRKiPfuecrpoDO-34" value="executar pedido" style="rounded=0;whiteSpace=wrap;html=1;fontSize=25;strokeWidth=3;fillColor=#01bcd2;strokeColor=default;" vertex="1" parent="1">
          <mxGeometry x="-2955" y="2905" width="200" height="200" as="geometry" />
        </mxCell>
        <mxCell id="cYJW5esRKiPfuecrpoDO-35" value="atualizou status do pedido no sistema&lt;br&gt;&quot;PRONTO&quot;" style="rounded=0;whiteSpace=wrap;html=1;fontSize=25;strokeWidth=3;fillColor=#f2a413;strokeColor=#FF0000;fontStyle=0" vertex="1" parent="1">
          <mxGeometry x="-2317" y="3107.5" width="200" height="200" as="geometry" />
        </mxCell>
        <mxCell id="cYJW5esRKiPfuecrpoDO-36" value="Atualizar status do pedido no painel" style="rounded=0;whiteSpace=wrap;html=1;fontSize=25;strokeWidth=3;fillColor=#01bcd2;strokeColor=default;" vertex="1" parent="1">
          <mxGeometry x="-2955" y="3127" width="200" height="200" as="geometry" />
        </mxCell>
        <mxCell id="cYJW5esRKiPfuecrpoDO-37" value="Atualização do status do pedido reflete no painel de senhas" style="rounded=0;whiteSpace=wrap;html=1;fontSize=24;strokeWidth=3;fillColor=#cf89d9;" vertex="1" parent="1">
          <mxGeometry x="-2098" y="3104" width="200" height="200" as="geometry" />
        </mxCell>
        <mxCell id="cYJW5esRKiPfuecrpoDO-38" value="Atendente" style="rounded=0;whiteSpace=wrap;html=1;fontSize=21;strokeWidth=3;fillColor=#f2e7ac;" vertex="1" parent="1">
          <mxGeometry x="-3290" y="3127" width="110" height="200" as="geometry" />
        </mxCell>
        <mxCell id="cYJW5esRKiPfuecrpoDO-39" value="executou pedido, finalizou e entregou pedido para o atendente" style="rounded=0;whiteSpace=wrap;html=1;fontSize=25;strokeWidth=3;fillColor=#f2a413;strokeColor=#000000;" vertex="1" parent="1">
          <mxGeometry x="-2318" y="2881" width="200" height="200" as="geometry" />
        </mxCell>
        <mxCell id="cYJW5esRKiPfuecrpoDO-40" value="visualiza painel de senhas e busca pedido entregando a senha impressa para o atendente" style="rounded=0;whiteSpace=wrap;html=1;fontSize=25;strokeWidth=3;fillColor=#01bcd2;strokeColor=default;" vertex="1" parent="1">
          <mxGeometry x="-2958" y="3339" width="200" height="200" as="geometry" />
        </mxCell>
        <mxCell id="cYJW5esRKiPfuecrpoDO-41" value="recebeu pedido" style="rounded=0;whiteSpace=wrap;html=1;fontSize=25;strokeWidth=3;fillColor=#f2a413;fontStyle=0;strokeColor=#000000;" vertex="1" parent="1">
          <mxGeometry x="-2317" y="3326" width="200" height="200" as="geometry" />
        </mxCell>
        <mxCell id="cYJW5esRKiPfuecrpoDO-42" value="Cliente" style="rounded=0;whiteSpace=wrap;html=1;fontSize=21;strokeWidth=3;fillColor=#f2e7ac;" vertex="1" parent="1">
          <mxGeometry x="-3082" y="3339" width="110" height="200" as="geometry" />
        </mxCell>
        <mxCell id="cYJW5esRKiPfuecrpoDO-43" value="atualizou status do pedido no sistema&lt;br&gt;&quot;FINALIZADO&quot;" style="rounded=0;whiteSpace=wrap;html=1;fontSize=25;strokeWidth=3;fillColor=#f2a413;strokeColor=#FF0000;fontStyle=0" vertex="1" parent="1">
          <mxGeometry x="-2318.5" y="3541" width="200" height="200" as="geometry" />
        </mxCell>
        <mxCell id="cYJW5esRKiPfuecrpoDO-44" value="Atualizar status do pedido no painel" style="rounded=0;whiteSpace=wrap;html=1;fontSize=25;strokeWidth=3;fillColor=#01bcd2;strokeColor=default;" vertex="1" parent="1">
          <mxGeometry x="-2955" y="3551" width="200" height="200" as="geometry" />
        </mxCell>
        <mxCell id="cYJW5esRKiPfuecrpoDO-45" value="Atualização do status do pedido reflete no painel de senhas" style="rounded=0;whiteSpace=wrap;html=1;fontSize=24;strokeWidth=3;fillColor=#cf89d9;" vertex="1" parent="1">
          <mxGeometry x="-2104" y="3541" width="200" height="200" as="geometry" />
        </mxCell>
        <mxCell id="cYJW5esRKiPfuecrpoDO-46" value="Atendente" style="rounded=0;whiteSpace=wrap;html=1;fontSize=21;strokeWidth=3;fillColor=#f2e7ac;" vertex="1" parent="1">
          <mxGeometry x="-3086" y="3551" width="110" height="200" as="geometry" />
        </mxCell>
        <mxCell id="cYJW5esRKiPfuecrpoDO-47" value="Painel de senhas" style="rounded=0;whiteSpace=wrap;html=1;fontSize=25;strokeWidth=3;fillColor=#f21d6b;" vertex="1" parent="1">
          <mxGeometry x="-1889" y="2247" width="200" height="200" as="geometry" />
        </mxCell>
        <mxCell id="cYJW5esRKiPfuecrpoDO-48" value="Painel de senhas" style="rounded=0;whiteSpace=wrap;html=1;fontSize=25;strokeWidth=3;fillColor=#f21d6b;" vertex="1" parent="1">
          <mxGeometry x="-1896" y="2664" width="200" height="200" as="geometry" />
        </mxCell>
        <mxCell id="cYJW5esRKiPfuecrpoDO-49" value="Painel de senhas" style="rounded=0;whiteSpace=wrap;html=1;fontSize=25;strokeWidth=3;fillColor=#f21d6b;" vertex="1" parent="1">
          <mxGeometry x="-1889" y="3538" width="200" height="200" as="geometry" />
        </mxCell>
        <mxCell id="cYJW5esRKiPfuecrpoDO-50" value="Totem eletrônico" style="rounded=0;whiteSpace=wrap;html=1;fontSize=25;strokeWidth=3;fillColor=#8dc774;" vertex="1" parent="1">
          <mxGeometry x="-3165" y="1106" width="200" height="200" as="geometry" />
        </mxCell>
        <mxCell id="cYJW5esRKiPfuecrpoDO-51" value="Impressora e&amp;nbsp;tablet de pedidos" style="rounded=0;whiteSpace=wrap;html=1;fontSize=25;strokeWidth=3;fillColor=#8dc774;" vertex="1" parent="1">
          <mxGeometry x="-1883" y="1829" width="200" height="200" as="geometry" />
        </mxCell>
        <mxCell id="cYJW5esRKiPfuecrpoDO-52" value="Impressora e&amp;nbsp;tablet de pedidos" style="rounded=0;whiteSpace=wrap;html=1;fontSize=25;strokeWidth=3;fillColor=#8dc774;" vertex="1" parent="1">
          <mxGeometry x="-3165" y="2477" width="200" height="200" as="geometry" />
        </mxCell>
        <mxCell id="cYJW5esRKiPfuecrpoDO-53" value="tablet atendente" style="rounded=0;whiteSpace=wrap;html=1;fontSize=25;strokeWidth=3;fillColor=#8dc774;" vertex="1" parent="1">
          <mxGeometry x="-3168" y="3127" width="200" height="200" as="geometry" />
        </mxCell>
        <mxCell id="cYJW5esRKiPfuecrpoDO-54" value="Pagamento" style="rounded=0;whiteSpace=wrap;html=1;fontSize=53;strokeWidth=3;fillColor=#F2C12E;fontStyle=1" vertex="1" parent="1">
          <mxGeometry x="-1121" y="1109" width="400" height="432" as="geometry" />
        </mxCell>
        <mxCell id="cYJW5esRKiPfuecrpoDO-55" value="escolhe opções de pagamento" style="rounded=0;whiteSpace=wrap;html=1;fontSize=25;strokeWidth=3;fillColor=#01bcd2;strokeColor=default;" vertex="1" parent="1">
          <mxGeometry x="-1335" y="1111" width="200" height="200" as="geometry" />
        </mxCell>
        <mxCell id="cYJW5esRKiPfuecrpoDO-56" value="realizou pagamento" style="rounded=0;whiteSpace=wrap;html=1;fontSize=25;strokeWidth=3;fillColor=#f2a413;strokeColor=#000000;" vertex="1" parent="1">
          <mxGeometry x="-699" y="1109" width="200" height="200" as="geometry" />
        </mxCell>
        <mxCell id="cYJW5esRKiPfuecrpoDO-57" value="redirecionamento para tela de comprovante e politica de emissão de senha" style="rounded=0;whiteSpace=wrap;html=1;fontSize=25;strokeWidth=3;fillColor=#cf89d9;" vertex="1" parent="1">
          <mxGeometry x="-477" y="1110.5" width="200" height="200" as="geometry" />
        </mxCell>
        <mxCell id="cYJW5esRKiPfuecrpoDO-58" value="cliente" style="rounded=0;whiteSpace=wrap;html=1;fontSize=25;strokeWidth=3;fillColor=#f2e7ac;" vertex="1" parent="1">
          <mxGeometry x="-1477" y="1116" width="110" height="200" as="geometry" />
        </mxCell>
        <mxCell id="cYJW5esRKiPfuecrpoDO-59" value="Gerente" style="rounded=0;whiteSpace=wrap;html=1;fontSize=25;strokeWidth=3;fillColor=#f2e7ac;" vertex="1" parent="1">
          <mxGeometry x="-1476" y="1352" width="110" height="200" as="geometry" />
        </mxCell>
        <mxCell id="cYJW5esRKiPfuecrpoDO-60" value="visualiza faturamento" style="rounded=0;whiteSpace=wrap;html=1;fontSize=25;strokeWidth=3;fillColor=#01bcd2;strokeColor=default;" vertex="1" parent="1">
          <mxGeometry x="-1335" y="1342" width="200" height="200" as="geometry" />
        </mxCell>
        <mxCell id="cYJW5esRKiPfuecrpoDO-61" value="enviou &lt;br&gt;satisfação escolhida" style="rounded=0;whiteSpace=wrap;html=1;fontSize=25;strokeWidth=3;fillColor=#f2a413;strokeColor=#000000;" vertex="1" parent="1">
          <mxGeometry x="-683" y="2133" width="200" height="200" as="geometry" />
        </mxCell>
        <mxCell id="cYJW5esRKiPfuecrpoDO-62" value="escolher o quão satisfeito está com o fluxo de auto atendimento" style="rounded=0;whiteSpace=wrap;html=1;fontSize=25;strokeWidth=3;fillColor=#01bcd2;strokeColor=default;" vertex="1" parent="1">
          <mxGeometry x="-1308" y="2133" width="200" height="202" as="geometry" />
        </mxCell>
        <mxCell id="cYJW5esRKiPfuecrpoDO-63" value="Satisfação" style="rounded=0;whiteSpace=wrap;html=1;fontSize=53;strokeWidth=3;fillColor=#F2C12E;fontStyle=1" vertex="1" parent="1">
          <mxGeometry x="-1096" y="2133" width="400" height="431" as="geometry" />
        </mxCell>
        <mxCell id="cYJW5esRKiPfuecrpoDO-64" value="cliente" style="rounded=0;whiteSpace=wrap;html=1;fontSize=25;strokeWidth=3;fillColor=#f2e7ac;" vertex="1" parent="1">
          <mxGeometry x="-1437" y="2133" width="110" height="204" as="geometry" />
        </mxCell>
        <mxCell id="cYJW5esRKiPfuecrpoDO-65" value="Gerente" style="rounded=0;whiteSpace=wrap;html=1;fontSize=25;strokeWidth=3;fillColor=#f2e7ac;" vertex="1" parent="1">
          <mxGeometry x="-1437" y="2366" width="110" height="200" as="geometry" />
        </mxCell>
        <mxCell id="cYJW5esRKiPfuecrpoDO-66" value="Avaliou a satisfação dos&lt;br style=&quot;border-color: var(--border-color);&quot;&gt;clientes" style="rounded=0;whiteSpace=wrap;html=1;fontSize=25;strokeWidth=3;fillColor=#01bcd2;strokeColor=default;" vertex="1" parent="1">
          <mxGeometry x="-1311" y="2363" width="200" height="200" as="geometry" />
        </mxCell>
      </root>
    </mxGraphModel>
  </diagram>
</mxfile>
